<svg xmlns="http://www.w3.org/2000/svg" xmlns:xlink="http://www.w3.org/1999/xlink" width="1920" zoomAndPan="magnify" viewBox="0 0 1440 1439.999935" height="1920" preserveAspectRatio="xMidYMid meet" version="1.0"><defs><clipPath id="id1"><path d="M 114 109 L 983 109 L 983 286 L 114 286 Z M 114 109 " clip-rule="nonzero"/></clipPath><clipPath id="id2"><path d="M 114.351562 281.988281 L 115.09375 109.492188 L 982.085938 113.210938 L 981.34375 285.710938 Z M 114.351562 281.988281 " clip-rule="nonzero"/></clipPath><clipPath id="id3"><path d="M 807 113 L 982 113 L 982 646 L 807 646 Z M 807 113 " clip-rule="nonzero"/></clipPath><clipPath id="id4"><path d="M 809.449219 113.019531 L 981.945312 113.761719 L 979.664062 645.507812 L 807.167969 644.765625 Z M 809.449219 113.019531 " clip-rule="nonzero"/></clipPath><clipPath id="id5"><path d="M 109 113 L 288 113 L 288 1331 L 109 1331 Z M 109 113 " clip-rule="nonzero"/></clipPath><clipPath id="id6"><path d="M 115.074219 113.019531 L 287.574219 113.761719 L 282.351562 1330.25 L 109.855469 1329.507812 Z M 115.074219 113.019531 " clip-rule="nonzero"/></clipPath><clipPath id="id7"><path d="M 460 1154 L 1326 1154 L 1326 1331 L 460 1331 Z M 460 1154 " clip-rule="nonzero"/></clipPath><clipPath id="id8"><path d="M 460.601562 1326.546875 L 461.339844 1154.050781 L 1325.332031 1157.757812 L 1324.59375 1330.253906 Z M 460.601562 1326.546875 " clip-rule="nonzero"/></clipPath><clipPath id="id9"><path d="M 1152 113 L 1331 113 L 1331 1331 L 1152 1331 Z M 1152 113 " clip-rule="nonzero"/></clipPath><clipPath id="id10"><path d="M 1157.886719 113.019531 L 1330.386719 113.761719 L 1325.164062 1330.25 L 1152.667969 1329.507812 Z M 1157.886719 113.019531 " clip-rule="nonzero"/></clipPath><clipPath id="id11"><path d="M 807.34375 1046.632812 L 982.09375 1046.632812 L 982.09375 1261.882812 L 807.34375 1261.882812 Z M 807.34375 1046.632812 " clip-rule="nonzero"/></clipPath><clipPath id="id12"><path d="M 460.601562 176.21875 L 635.351562 176.21875 L 635.351562 391.46875 L 460.601562 391.46875 Z M 460.601562 176.21875 " clip-rule="nonzero"/></clipPath><clipPath id="id13"><path d="M 461 783 L 637 783 L 637 1317 L 461 1317 Z M 461 783 " clip-rule="nonzero"/></clipPath><clipPath id="id14"><path d="M 464.199219 783.726562 L 636.699219 784.46875 L 634.417969 1316.214844 L 461.917969 1315.472656 Z M 464.199219 783.726562 " clip-rule="nonzero"/></clipPath></defs><g clip-path="url(#id1)"><g clip-path="url(#id2)"><path fill="#000000" d="M 114.359375 281.988281 L 115.101562 109.492188 L 982.078125 113.210938 L 981.335938 285.710938 L 114.359375 281.988281 " fill-opacity="1" fill-rule="nonzero"/></g></g><g clip-path="url(#id3)"><g clip-path="url(#id4)"><path fill="#000000" d="M 809.449219 113.023438 L 981.945312 113.765625 L 979.664062 645.503906 L 807.167969 644.761719 L 809.449219 113.023438 " fill-opacity="1" fill-rule="nonzero"/></g></g><g clip-path="url(#id5)"><g clip-path="url(#id6)"><path fill="#000000" d="M 115.074219 113.03125 L 287.574219 113.773438 L 282.351562 1330.238281 L 109.855469 1329.496094 L 115.074219 113.03125 " fill-opacity="1" fill-rule="nonzero"/></g></g><g clip-path="url(#id7)"><g clip-path="url(#id8)"><path fill="#000000" d="M 460.613281 1326.546875 L 461.355469 1154.050781 L 1325.320312 1157.757812 L 1324.582031 1330.253906 L 460.613281 1326.546875 " fill-opacity="1" fill-rule="nonzero"/></g></g><g clip-path="url(#id9)"><g clip-path="url(#id10)"><path fill="#000000" d="M 1157.886719 113.03125 L 1330.386719 113.773438 L 1325.164062 1330.238281 L 1152.667969 1329.496094 L 1157.886719 113.03125 " fill-opacity="1" fill-rule="nonzero"/></g></g><g clip-path="url(#id11)"><path fill="#000000" d="M 923.8125 1051.679688 C 914.855469 1048.632812 904.667969 1046.632812 894.671875 1046.632812 C 884.675781 1046.632812 875.058594 1048.347656 866.191406 1051.394531 C 866.003906 1051.492188 865.816406 1051.492188 865.628906 1051.585938 C 832.335938 1063.78125 807.816406 1095.988281 807.347656 1133.628906 L 807.347656 1261.882812 L 982.09375 1261.882812 L 982.09375 1133.722656 C 981.625 1095.800781 957.480469 1063.59375 923.8125 1051.679688 " fill-opacity="1" fill-rule="nonzero"/></g><g clip-path="url(#id12)"><path fill="#000000" d="M 518.886719 386.417969 C 527.84375 389.46875 538.027344 391.46875 548.023438 391.46875 C 558.023438 391.46875 567.640625 389.753906 576.503906 386.703125 C 576.695312 386.609375 576.882812 386.609375 577.070312 386.515625 C 610.363281 374.316406 634.882812 342.109375 635.351562 304.472656 L 635.351562 176.21875 L 460.605469 176.21875 L 460.605469 304.378906 C 461.074219 342.300781 485.21875 374.507812 518.886719 386.417969 " fill-opacity="1" fill-rule="nonzero"/></g><g clip-path="url(#id13)"><g clip-path="url(#id14)"><path fill="#000000" d="M 464.199219 783.730469 L 636.699219 784.472656 L 634.417969 1316.210938 L 461.917969 1315.46875 L 464.199219 783.730469 " fill-opacity="1" fill-rule="nonzero"/></g></g></svg>