<svg xmlns="http://www.w3.org/2000/svg" xmlns:xlink="http://www.w3.org/1999/xlink" width="1920" zoomAndPan="magnify" viewBox="0 0 1440 1439.999935" height="1920" preserveAspectRatio="xMidYMid meet" version="1.0"><defs><g/><clipPath id="id1"><path d="M 421 260 L 850 260 L 850 347 L 421 347 Z M 421 260 " clip-rule="nonzero"/></clipPath><clipPath id="id2"><path d="M 421.101562 344.964844 L 421.464844 260.214844 L 849.710938 262.054688 L 849.347656 346.804688 Z M 421.101562 344.964844 " clip-rule="nonzero"/></clipPath><clipPath id="id3"><path d="M 763 261 L 849 261 L 849 525 L 763 525 Z M 763 261 " clip-rule="nonzero"/></clipPath><clipPath id="id4"><path d="M 764.144531 261.578125 L 848.894531 261.941406 L 847.765625 524.4375 L 763.019531 524.074219 Z M 764.144531 261.578125 " clip-rule="nonzero"/></clipPath><clipPath id="id5"><path d="M 418 261 L 507 261 L 507 862 L 418 862 Z M 418 261 " clip-rule="nonzero"/></clipPath><clipPath id="id6"><path d="M 421.457031 261.578125 L 506.207031 261.941406 L 503.632812 861.933594 L 418.882812 861.570312 Z M 421.457031 261.578125 " clip-rule="nonzero"/></clipPath><clipPath id="id7"><path d="M 591 775 L 1020 775 L 1020 863 L 591 863 Z M 591 775 " clip-rule="nonzero"/></clipPath><clipPath id="id8"><path d="M 591.980469 860.472656 L 592.34375 775.726562 L 1019.089844 777.558594 L 1018.726562 862.304688 Z M 591.980469 860.472656 " clip-rule="nonzero"/></clipPath><clipPath id="id9"><path d="M 933 261 L 1021 261 L 1021 862 L 933 862 Z M 933 261 " clip-rule="nonzero"/></clipPath><clipPath id="id10"><path d="M 936.105469 261.578125 L 1020.855469 261.941406 L 1018.28125 861.933594 L 933.53125 861.570312 Z M 936.105469 261.578125 " clip-rule="nonzero"/></clipPath><clipPath id="id11"><path d="M 763.09375 722.054688 L 849.34375 722.054688 L 849.34375 828.554688 L 763.09375 828.554688 Z M 763.09375 722.054688 " clip-rule="nonzero"/></clipPath><clipPath id="id12"><path d="M 591.984375 292.765625 L 678.234375 292.765625 L 678.234375 399.265625 L 591.984375 399.265625 Z M 591.984375 292.765625 " clip-rule="nonzero"/></clipPath><clipPath id="id13"><path d="M 592 592 L 679 592 L 679 856 L 592 856 Z M 592 592 " clip-rule="nonzero"/></clipPath><clipPath id="id14"><path d="M 593.757812 592.585938 L 678.507812 592.949219 L 677.382812 855.445312 L 592.632812 855.082031 Z M 593.757812 592.585938 " clip-rule="nonzero"/></clipPath></defs><g clip-path="url(#id1)"><g clip-path="url(#id2)"><path fill="#000000" d="M 421.109375 344.964844 L 421.472656 260.214844 L 849.699219 262.054688 L 849.335938 346.804688 L 421.109375 344.964844 " fill-opacity="1" fill-rule="nonzero"/></g></g><g clip-path="url(#id3)"><g clip-path="url(#id4)"><path fill="#000000" d="M 764.144531 261.582031 L 848.894531 261.945312 L 847.765625 524.433594 L 763.019531 524.070312 L 764.144531 261.582031 " fill-opacity="1" fill-rule="nonzero"/></g></g><g clip-path="url(#id5)"><g clip-path="url(#id6)"><path fill="#000000" d="M 421.457031 261.589844 L 506.207031 261.953125 L 503.632812 861.921875 L 418.882812 861.558594 L 421.457031 261.589844 " fill-opacity="1" fill-rule="nonzero"/></g></g><g clip-path="url(#id7)"><g clip-path="url(#id8)"><path fill="#000000" d="M 591.992188 860.476562 L 592.355469 775.726562 L 1019.078125 777.558594 L 1018.714844 862.304688 L 591.992188 860.476562 " fill-opacity="1" fill-rule="nonzero"/></g></g><g clip-path="url(#id9)"><g clip-path="url(#id10)"><path fill="#000000" d="M 936.105469 261.589844 L 1020.855469 261.953125 L 1018.28125 861.921875 L 933.53125 861.558594 L 936.105469 261.589844 " fill-opacity="1" fill-rule="nonzero"/></g></g><g clip-path="url(#id11)"><path fill="#000000" d="M 820.578125 724.554688 C 816.15625 723.046875 811.132812 722.054688 806.199219 722.054688 C 801.261719 722.054688 796.515625 722.90625 792.140625 724.414062 C 792.046875 724.460938 791.953125 724.460938 791.859375 724.507812 C 775.429688 730.542969 763.328125 746.476562 763.097656 765.097656 L 763.097656 828.554688 L 849.34375 828.554688 L 849.34375 765.144531 C 849.113281 746.382812 837.195312 730.449219 820.578125 724.554688 " fill-opacity="1" fill-rule="nonzero"/></g><g clip-path="url(#id12)"><path fill="#000000" d="M 620.75 396.769531 C 625.171875 398.277344 630.195312 399.265625 635.132812 399.265625 C 640.066406 399.265625 644.8125 398.417969 649.1875 396.910156 C 649.28125 396.863281 649.375 396.863281 649.46875 396.816406 C 665.898438 390.78125 678 374.84375 678.230469 356.222656 L 678.230469 292.765625 L 591.984375 292.765625 L 591.984375 356.175781 C 592.214844 374.941406 604.132812 390.875 620.75 396.769531 " fill-opacity="1" fill-rule="nonzero"/></g><g fill="#000000" fill-opacity="1"><g transform="translate(158.041094, 1126.396652)"><g><path d="M 100.542969 -76.480469 L 99.929688 -52.570312 L 99.929688 0 L 124.761719 0 L 124.761719 -119.550781 L 87.976562 -119.550781 L 66.671875 -43.070312 L 45.214844 -119.550781 L 8.582031 -119.550781 L 8.582031 0 L 33.414062 0 L 33.414062 -52.570312 L 32.644531 -76.480469 L 53.949219 0 L 79.238281 0 Z M 100.542969 -76.480469 "/></g></g></g><g fill="#000000" fill-opacity="1"><g transform="translate(294.754925, 1126.396652)"><g><path d="M 51.5 1.992188 C 82.613281 1.992188 97.171875 -15.328125 97.171875 -56.710938 L 97.171875 -62.839844 C 97.171875 -104.222656 82.613281 -121.542969 51.5 -121.542969 C 20.539062 -121.542969 5.976562 -104.222656 5.976562 -62.839844 L 5.976562 -56.710938 C 5.976562 -15.328125 20.539062 1.992188 51.5 1.992188 Z M 50.886719 -19.464844 C 35.558594 -19.464844 31.113281 -32.800781 31.113281 -56.710938 L 31.113281 -62.839844 C 31.113281 -86.75 35.558594 -100.085938 50.886719 -100.085938 L 52.265625 -100.085938 C 67.589844 -100.085938 71.882812 -86.75 71.882812 -62.839844 L 71.882812 -56.710938 C 71.882812 -32.800781 67.589844 -19.464844 52.265625 -19.464844 Z M 50.886719 -19.464844 "/></g></g></g><g fill="#000000" fill-opacity="1"><g transform="translate(401.428527, 1126.396652)"><g><path d="M 96.097656 -119.550781 L 72.496094 -119.550781 L 72.496094 -69.429688 L 73.261719 -45.367188 L 34.792969 -119.550781 L 8.582031 -119.550781 L 8.582031 0 L 32.03125 0 L 32.03125 -50.117188 L 31.265625 -74.183594 L 69.890625 0 L 96.097656 0 Z M 96.097656 -119.550781 "/></g></g></g><g fill="#000000" fill-opacity="1"><g transform="translate(509.634796, 1126.396652)"><g><path d="M 53.335938 1.992188 C 74.183594 1.992188 86.289062 -4.597656 95.179688 -11.953125 L 95.179688 -64.679688 L 54.5625 -64.679688 L 54.5625 -43.222656 L 70.351562 -43.222656 L 70.351562 -24.0625 C 66.671875 -21.457031 61.152344 -19.464844 54.105469 -19.464844 L 52.722656 -19.464844 C 35.25 -19.464844 31.265625 -32.800781 31.265625 -56.710938 L 31.265625 -62.839844 C 31.265625 -86.75 35.40625 -100.085938 51.804688 -100.085938 L 53.183594 -100.085938 C 66.976562 -100.085938 70.503906 -90.582031 70.503906 -74.183594 L 95.332031 -74.183594 L 95.332031 -79.699219 C 95.332031 -109.585938 80.3125 -121.542969 51.804688 -121.542969 C 20.84375 -121.542969 5.976562 -104.222656 5.976562 -62.839844 L 5.976562 -56.710938 C 5.976562 -15.328125 20.84375 1.992188 53.335938 1.992188 Z M 53.335938 1.992188 "/></g></g></g><g fill="#000000" fill-opacity="1"><g transform="translate(616.308398, 1126.396652)"><g><path d="M 34.179688 -119.550781 L 9.347656 -119.550781 L 9.347656 0 L 34.179688 0 Z M 34.179688 -119.550781 "/></g></g></g><g fill="#000000" fill-opacity="1"><g transform="translate(663.208085, 1126.396652)"><g><path d="M 44.449219 -49.964844 C 61.765625 -47.667969 66.210938 -42.914062 66.210938 -34.332031 L 66.210938 -33.566406 C 66.210938 -25.597656 60.542969 -19.464844 49.046875 -19.464844 L 47.667969 -19.464844 C 36.171875 -19.464844 30.039062 -25.75 30.039062 -40.769531 L 5.210938 -40.769531 L 5.210938 -39.390625 C 5.210938 -10.574219 20.078125 1.992188 48.28125 1.992188 C 76.328125 1.992188 91.5 -11.34375 91.5 -34.332031 L 91.5 -35.863281 C 91.5 -58.089844 78.320312 -66.976562 52.265625 -70.503906 C 34.792969 -72.800781 31.265625 -77.402344 31.265625 -86.136719 L 31.265625 -86.902344 C 31.265625 -94.566406 37.089844 -100.085938 47.054688 -100.085938 L 48.433594 -100.085938 C 61 -100.085938 65.753906 -92.878906 65.753906 -77.246094 L 90.582031 -77.246094 L 90.582031 -80.464844 C 90.582031 -108.515625 77.707031 -121.542969 48.28125 -121.542969 C 20.996094 -121.542969 6.128906 -107.59375 6.128906 -85.984375 L 6.128906 -84.296875 C 6.128906 -62.6875 18.390625 -53.492188 44.449219 -49.964844 Z M 44.449219 -49.964844 "/></g></g></g><g fill="#000000" fill-opacity="1"><g transform="translate(763.437091, 1126.396652)"><g><path d="M 93.492188 1.226562 L 108.667969 1.226562 L 130.890625 -119.550781 L 119.242188 -119.550781 L 100.542969 -12.414062 L 76.019531 -119.550781 L 61.152344 -119.550781 L 36.632812 -12.414062 L 17.933594 -119.550781 L 6.285156 -119.550781 L 28.507812 1.226562 L 43.679688 1.226562 L 68.511719 -107.59375 Z M 93.492188 1.226562 "/></g></g></g><g fill="#000000" fill-opacity="1"><g transform="translate(904.135855, 1126.396652)"><g><path d="M 49.660156 1.6875 C 77.09375 1.6875 90.734375 -15.328125 90.734375 -56.710938 L 90.734375 -62.839844 C 90.734375 -104.222656 77.09375 -121.234375 49.660156 -121.234375 C 22.378906 -121.234375 8.734375 -104.222656 8.734375 -62.839844 L 8.734375 -56.710938 C 8.734375 -15.328125 22.378906 1.6875 49.660156 1.6875 Z M 49.199219 -8.277344 C 29.121094 -8.277344 20.078125 -22.683594 20.078125 -56.710938 L 20.078125 -62.839844 C 20.078125 -96.867188 29.121094 -111.273438 49.199219 -111.273438 L 50.273438 -111.273438 C 70.351562 -111.273438 79.394531 -96.867188 79.394531 -62.839844 L 79.394531 -56.710938 C 79.394531 -22.683594 70.351562 -8.277344 50.273438 -8.277344 Z M 49.199219 -8.277344 "/></g></g></g><g fill="#000000" fill-opacity="1"><g transform="translate(1007.131064, 1126.396652)"><g><path d="M 22.378906 -48.585938 L 44.449219 -48.585938 C 46.285156 -48.585938 48.125 -48.585938 49.964844 -48.738281 L 68.972656 0 L 81.078125 0 L 60.386719 -50.886719 C 71.730469 -54.5625 81.078125 -63.453125 81.078125 -82.457031 L 81.078125 -85.523438 C 81.078125 -113.113281 61.460938 -119.550781 44.449219 -119.550781 L 11.34375 -119.550781 L 11.34375 0 L 22.378906 0 Z M 22.378906 -58.546875 L 22.378906 -109.585938 L 44.753906 -109.585938 C 55.023438 -109.585938 69.738281 -105.753906 69.738281 -85.21875 L 69.738281 -82.917969 C 69.738281 -62.378906 55.023438 -58.546875 44.753906 -58.546875 Z M 22.378906 -58.546875 "/></g></g></g><g fill="#000000" fill-opacity="1"><g transform="translate(1100.163948, 1126.396652)"><g><path d="M 22.378906 -119.550781 L 11.34375 -119.550781 L 11.34375 0 L 22.378906 0 L 22.378906 -36.785156 L 38.316406 -59.316406 L 68.359375 0 L 80.925781 0 L 45.367188 -69.277344 L 80.925781 -119.550781 L 67.4375 -119.550781 L 22.378906 -53.949219 Z M 22.378906 -119.550781 "/></g></g></g><g fill="#000000" fill-opacity="1"><g transform="translate(1189.824962, 1126.396652)"><g><path d="M 44.140625 -56.710938 C 64.984375 -53.796875 73.722656 -46.746094 73.722656 -32.644531 L 73.722656 -31.265625 C 73.722656 -16.707031 62.839844 -8.277344 46.59375 -8.277344 L 45.519531 -8.277344 C 29.425781 -8.277344 18.085938 -17.933594 18.085938 -38.929688 L 7.050781 -38.929688 L 7.050781 -37.398438 C 7.050781 -12.722656 20.691406 1.6875 45.980469 1.6875 C 69.890625 1.6875 85.0625 -10.882812 85.0625 -32.03125 L 85.0625 -33.566406 C 85.0625 -51.957031 74.335938 -62.535156 48.28125 -66.058594 C 26.363281 -69.125 19.773438 -76.632812 19.773438 -89.355469 L 19.773438 -90.582031 C 19.773438 -103.457031 30.808594 -111.273438 45.367188 -111.273438 L 46.441406 -111.273438 C 64.679688 -111.273438 72.648438 -101.769531 72.648438 -79.085938 L 83.683594 -79.085938 L 83.683594 -82.765625 C 83.683594 -107.441406 72.648438 -121.234375 45.980469 -121.234375 C 23.296875 -121.234375 8.429688 -109.128906 8.429688 -89.203125 L 8.429688 -87.667969 C 8.429688 -71.882812 18.085938 -60.234375 44.140625 -56.710938 Z M 44.140625 -56.710938 "/></g></g></g><g clip-path="url(#id13)"><g clip-path="url(#id14)"><path fill="#000000" d="M 593.757812 592.589844 L 678.507812 592.953125 L 677.382812 855.4375 L 592.632812 855.074219 L 593.757812 592.589844 " fill-opacity="1" fill-rule="nonzero"/></g></g></svg>