<?xml version="1.0" encoding="UTF-8" standalone="no"?>
<!-- Created with Inkscape (http://www.inkscape.org/) -->

<svg
   width="210mm"
   height="297mm"
   viewBox="0 0 210 297"
   version="1.1"
   id="svg5"
   xml:space="preserve"
   inkscape:version="1.2.2 (b0a84865, 2022-12-01)"
   sodipodi:docname="rogon-logo-2026.svg"
   xmlns:inkscape="http://www.inkscape.org/namespaces/inkscape"
   xmlns:sodipodi="http://sodipodi.sourceforge.net/DTD/sodipodi-0.dtd"
   xmlns="http://www.w3.org/2000/svg"
   xmlns:svg="http://www.w3.org/2000/svg"><sodipodi:namedview
     id="namedview7"
     pagecolor="#ffffff"
     bordercolor="#666666"
     borderopacity="1.0"
     inkscape:showpageshadow="2"
     inkscape:pageopacity="0.0"
     inkscape:pagecheckerboard="0"
     inkscape:deskcolor="#d1d1d1"
     inkscape:document-units="mm"
     showgrid="false"
     inkscape:zoom="0.2102413"
     inkscape:cx="-42.807954"
     inkscape:cy="587.42026"
     inkscape:window-width="1065"
     inkscape:window-height="761"
     inkscape:window-x="0"
     inkscape:window-y="25"
     inkscape:window-maximized="0"
     inkscape:current-layer="layer1" /><defs
     id="defs2" /><g
     inkscape:label="Layer 1"
     inkscape:groupmode="layer"
     id="layer1"><path
       style="fill:#000000;stroke-width:0.217136"
       d="m 49.340339,170.39073 c 0,-2.28913 0.03558,-2.51515 0.395898,-2.51515 0.228795,0 1.059231,0.77902 1.967467,1.84565 0.864364,1.01512 1.663323,1.84566 1.775462,1.84566 0.112136,0 0.203884,-0.83054 0.203884,-1.84566 0,-1.49582 0.06173,-1.84565 0.325707,-1.84565 0.270637,0 0.325706,0.42221 0.325706,2.49706 0,2.02678 -0.05878,2.49706 -0.312178,2.49706 -0.1717,0 -1.075529,-0.87071 -2.008509,-1.93492 -0.932979,-1.06421 -1.765804,-1.9436 -1.850725,-1.95422 -0.08492,-0.0102 -0.182633,0.82779 -0.217137,1.86311 -0.04222,1.26604 -0.151611,1.91186 -0.334157,1.97232 -0.206692,0.0685 -0.271418,-0.50995 -0.271418,-2.42526 z m 17.30582,2.34155 c -0.188341,-0.18834 -0.192328,-1.46667 -0.01058,-3.39103 l 0.138424,-1.46567 h 2.183384 c 2.614523,0 2.64084,0.38177 0.03298,0.47846 l -1.736315,0.0644 -0.06739,0.81426 -0.06739,0.81425 h 1.750192 c 2.241472,0 2.297051,0.3954 0.06739,0.47943 l -1.682803,0.0634 v 0.75997 0.75998 l 1.915142,0.0629 c 1.379713,0.0454 1.890792,0.13641 1.828052,0.3257 -0.09568,0.2887 -4.081984,0.50298 -4.351072,0.2339 z m 18.449203,-0.007 c -0.07962,-0.0796 -0.144759,-1.10558 -0.144759,-2.27992 v -2.13516 h -0.977111 c -0.53741,0 -0.977111,-0.0977 -0.977111,-0.21714 0,-0.1316 0.940922,-0.21714 2.388495,-0.21714 1.355267,0 2.388492,0.0887 2.388492,0.20524 0,0.11286 -0.464127,0.23501 -1.031394,0.27142 l -1.031395,0.0662 -0.06188,2.22564 c -0.05706,2.05225 -0.167323,2.46691 -0.553339,2.08088 z M 100.687,172.5988 c -0.0555,-0.14928 -0.42332,-1.27296 -0.8174,-2.49706 -0.625628,-1.94336 -0.670293,-2.22564 -0.352159,-2.22564 0.267671,0 0.518879,0.49563 0.946729,1.8679 0.32031,1.02733 0.64938,1.80218 0.73128,1.72188 0.0819,-0.0803 0.40095,-0.89643 0.70901,-1.81361 0.43181,-1.28564 0.66199,-1.6827 1.00493,-1.73353 0.33243,-0.0493 0.48227,0.0879 0.59296,0.54285 0.29874,1.22773 1.05012,3.09458 1.2066,2.99787 0.0885,-0.0547 0.38751,-0.88338 0.66435,-1.84143 0.37094,-1.28375 0.59895,-1.74193 0.86686,-1.74193 0.31594,0 0.26175,0.32685 -0.41403,2.49706 -0.98415,3.16053 -1.26609,3.25516 -2.10241,0.70569 -0.3232,-0.98526 -0.65875,-1.86973 -0.74565,-1.96549 -0.12794,-0.14098 -0.63483,1.10156 -1.42191,3.48544 -0.0493,0.14928 -0.24231,0.27142 -0.42894,0.27142 -0.18663,0 -0.38474,-0.12214 -0.44022,-0.27142 z m 19.06394,0.1299 c -1.2167,-0.26303 -1.8044,-2.49759 -1.04375,-3.96853 0.404,-0.78126 0.69299,-0.88407 2.48499,-0.88407 1.99197,0 2.40859,0.4184 2.40859,2.41893 0,1.22615 -0.0718,1.48129 -0.54117,1.92221 -0.54618,0.51311 -2.15244,0.76141 -3.30866,0.51146 z m 2.74089,-0.88987 c 0.29328,-0.24272 0.50788,-0.74635 0.59405,-1.39411 0.11922,-0.8961 0.0697,-1.07931 -0.4252,-1.57423 -0.72635,-0.72635 -2.19667,-0.77946 -3.04764,-0.11014 -0.47978,0.37739 -0.57212,0.62273 -0.57212,1.51996 0,1.44505 0.4913,1.93846 1.93016,1.93846 0.69141,0 1.22174,-0.13252 1.52075,-0.37999 z m 13.26854,-1.46567 v -2.49706 h 2.04729 c 2.36552,0 2.7297,0.2013 2.7297,1.50887 0,0.91515 -0.23542,1.20121 -1.18463,1.43945 l -0.63935,0.16047 0.91199,0.80932 c 0.98871,0.87739 1.09453,1.07601 0.57328,1.07601 -0.18628,0 -0.8634,-0.49626 -1.50471,-1.10277 -1.53606,-1.45274 -2.14321,-1.4334 -2.23977,0.0713 -0.0464,0.72413 -0.15967,1.0314 -0.37999,1.0314 -0.25546,0 -0.31381,-0.46429 -0.31381,-2.49707 z m 4.08506,-0.92297 c 0.082,-0.85131 -0.30887,-1.05131 -2.18512,-1.11786 l -1.24853,-0.0443 v 0.9974 0.9974 l 1.6828,-0.0634 1.6828,-0.0634 z m 15.51429,2.22578 c -0.72582,-0.65684 -1.42645,-1.19424 -1.55695,-1.19424 -0.13997,0 -0.23726,0.44523 -0.23726,1.08567 0,0.8203 -0.0796,1.08569 -0.32571,1.08569 -0.26978,0 -0.3257,-0.41016 -0.3257,-2.3885 0,-1.31367 0.0864,-2.38849 0.19181,-2.38849 0.23226,0 0.45259,0.75956 0.45664,1.57423 0.002,0.32843 0.0762,0.59465 0.16581,0.59161 0.0895,-0.003 0.74735,-0.49159 1.46175,-1.08568 0.76308,-0.63459 1.51385,-1.08016 1.82,-1.08016 0.43038,0 0.27043,0.19352 -0.91891,1.11167 -0.79201,0.61142 -1.43935,1.17325 -1.43854,1.24854 8.7e-4,0.0752 0.31839,0.35955 0.7057,0.63174 0.38732,0.27219 1.0869,0.83403 1.55464,1.24853 0.81384,0.72121 0.82712,0.75364 0.30842,0.75364 -0.35226,0 -1.004,-0.41807 -1.8617,-1.19425 z M 24.369722,151.57911 v -7.3939 l 6.894064,0.0655 c 6.691459,0.0636 6.916894,0.0798 7.671033,0.5488 1.078606,0.67081 1.342257,1.36176 1.455812,3.81526 0.166253,3.59185 -0.643023,4.78986 -3.448405,5.10481 l -1.34208,0.15068 2.527378,2.35636 c 1.390058,1.29601 2.527385,2.4441 2.527385,2.55135 0,0.10728 -0.755851,0.19497 -1.679671,0.19497 h -1.679664 l -2.624283,-2.61798 -2.624277,-2.61797 -1.830143,-6.2e-4 c -1.006575,-4.3e-4 -2.147693,0.005 -2.535829,0.0124 l -0.705686,0.013 v 2.60563 2.60563 h -1.302817 -1.302817 z m 12.979831,-0.54386 c 0.429621,-0.30092 0.482591,-0.52678 0.482591,-2.05779 0,-2.48678 0.155378,-2.42514 -5.899497,-2.34044 l -4.848724,0.0678 -0.06163,2.33422 -0.06163,2.33421 h 4.95315 c 4.131569,0 5.033207,-0.0561 5.43574,-0.33801 z m 23.204228,7.72082 c -0.341247,-0.10569 -0.815381,-0.36866 -1.053623,-0.58426 -0.974028,-0.88149 -1.040158,-1.30302 -1.039308,-6.62492 6.15e-4,-5.79719 0.08956,-6.1385 1.795046,-6.9127 0.829255,-0.37643 1.466793,-0.41733 6.572146,-0.42164 5.436315,-0.005 5.691074,0.014 6.622641,0.48379 1.629153,0.82153 1.728082,1.21423 1.728474,6.86123 4.35e-4,5.38413 -0.106618,5.91176 -1.383532,6.82259 -0.658906,0.47 -0.854955,0.48552 -6.650155,0.52623 -3.284178,0.0231 -6.250435,-0.0446 -6.591689,-0.15032 z m 11.872539,-2.58856 c 0.297095,-0.2971 0.242336,-8.91186 -0.05856,-9.21296 -0.174494,-0.17462 -1.85126,-0.24971 -5.575984,-0.24971 -5.021929,0 -5.344078,0.0241 -5.634847,0.42149 -0.240299,0.32843 -0.308398,1.31408 -0.308398,4.46407 0,4.21714 0.08832,4.66087 0.958019,4.81295 0.892405,0.15605 10.439905,-0.056 10.619772,-0.23584 z m 22.864137,2.58089 c -0.767201,-0.22971 -1.625878,-1.00292 -1.920811,-1.72961 -0.274888,-0.67731 -0.375445,-8.62843 -0.127586,-10.08808 0.216844,-1.27699 0.991041,-2.19269 2.118716,-2.50595 0.4313,-0.11983 3.725328,-0.21509 7.460084,-0.21577 l 6.68776,-0.001 -0.0651,1.21727 -0.0651,1.21727 -6.44961,-0.0331 c -6.232333,-0.0321 -6.464583,-0.0182 -6.894061,0.41123 -0.416652,0.41675 -0.44445,0.70256 -0.44445,4.57013 0,3.83799 0.03031,4.15589 0.434882,4.56046 0.416153,0.41615 0.652051,0.43063 5.477909,0.3362 5.828,-0.11402 5.5954,-0.0216 5.5954,-2.22397 v -1.37003 h -2.82276 -2.82277 v -1.17931 -1.1793 l 3.52846,-0.0692 c 1.94065,-0.0381 3.74831,-0.0334 4.01701,0.0102 0.48041,0.0783 0.48856,0.13187 0.48856,3.21354 0,3.67045 -0.18035,4.22237 -1.58864,4.86175 -0.8193,0.37198 -1.45163,0.41108 -6.44539,0.39855 -3.045325,-0.008 -5.818433,-0.0982 -6.162461,-0.20118 z m 34.064413,-0.0768 c -0.9279,-0.41966 -1.63267,-1.26104 -1.86703,-2.22893 -0.23973,-0.99006 -0.19163,-8.23107 0.0639,-9.61913 0.21902,-1.18977 1.05236,-2.10875 2.19006,-2.4151 0.51727,-0.13929 3.04788,-0.20074 6.56331,-0.15938 6.30053,0.0741 6.24763,0.0629 7.36731,1.56212 0.4229,0.56623 0.44769,0.88628 0.44769,5.77846 0,4.89191 -0.0248,5.21228 -0.44769,5.77922 -0.24622,0.33013 -0.71731,0.80169 -1.04684,1.0479 -0.56713,0.42377 -0.92039,0.45041 -6.60922,0.49856 -4.68282,0.0396 -6.15393,-0.0142 -6.66147,-0.24372 z m 11.99675,-2.57124 c 0.20054,-0.16287 0.27142,-1.34066 0.27142,-4.50997 0,-3.72523 -0.0472,-4.32875 -0.35907,-4.58756 -0.2823,-0.23427 -1.47013,-0.298 -5.55448,-0.298 -4.89226,0 -5.21336,0.0246 -5.50358,0.42149 -0.24031,0.32865 -0.3082,1.32108 -0.3082,4.50557 0,3.62424 0.0435,4.12753 0.38598,4.47006 0.35333,0.35334 0.8263,0.37891 5.59124,0.30241 3.06772,-0.0493 5.31672,-0.17408 5.47669,-0.304 z m 21.16785,-4.45569 0.0572,-7.32834 1.35811,-0.0646 1.3581,-0.0646 3.27629,3.10457 c 1.80195,1.70751 4.41527,4.15382 5.80737,5.43626 l 2.53109,2.33169 0.10854,-5.37159 0.10854,-5.3716 1.24852,-0.0651 1.24854,-0.0651 v 7.39345 7.39345 l -1.24854,-0.003 -1.24852,-0.003 -5.86267,-5.63117 c -3.22447,-3.09715 -5.93594,-5.63627 -6.02552,-5.64248 -0.0895,-0.006 -0.16285,2.52919 -0.16285,5.63422 v 5.64554 h -1.30569 -1.3057 z M 114.7901,131.98619 c -0.24801,-0.14504 -0.97618,-0.84998 -1.61814,-1.56653 -0.64196,-0.71655 -4.0076,-4.42957 -7.47918,-8.25116 C 81.666809,95.720266 79.724823,93.557318 79.872101,93.409856 c 0.06615,-0.06622 8.246645,-0.170354 18.178879,-0.231394 17.7173,-0.108882 18.08425,-0.119736 19.41531,-0.574229 4.43462,-1.514231 7.2099,-5.355301 7.21758,-9.989387 0.008,-4.600364 -3.11796,-8.519224 -7.75258,-9.720175 -1.15471,-0.299216 -3.88928,-0.341699 -21.994825,-0.341699 H 74.260302 l 0.130925,-0.488555 c 0.07201,-0.268706 0.132265,-0.806117 0.133895,-1.194247 l 0.003,-0.705692 h 2.611929 2.611931 l -0.06059,-2.877048 -0.06058,-2.877049 h -2.549103 c -1.658874,0 -2.581165,-0.08369 -2.64091,-0.239655 -0.05049,-0.13181 -0.03767,-1.414655 0.02849,-2.850767 l 0.120304,-2.61111 1.109223,-0.112113 c 0.610073,-0.06167 10.049791,-0.08251 20.977149,-0.04632 21.882795,0.07247 21.929535,0.07507 26.273425,1.456641 11.80176,3.753553 18.53735,15.144389 16.14954,27.311138 -1.6732,8.525593 -7.4763,14.996895 -15.93241,17.766995 -2.03919,0.66802 -4.01961,1.09226 -6.79145,1.45483 -2.06826,0.27056 -3.44019,0.59351 -3.83128,0.9019 -0.0504,0.0397 0.68243,0.87785 1.62852,1.86246 1.65127,1.71849 18.42572,20.05167 20.13932,22.01072 l 0.83115,0.95021 -9.95085,-0.008 c -7.4016,-0.006 -10.06638,-0.0752 -10.4018,-0.27142 z M 62.585619,72.661539 v -2.497061 h 2.411725 c 2.10997,0 2.395233,0.04297 2.279925,0.343464 -0.0725,0.188903 -0.131799,1.312582 -0.131799,2.497061 v 2.153599 h -2.279924 -2.279927 z m 4.994084,-5.482677 3.9e-5,-2.87705 3.094184,0.0033 c 1.701802,0.0017 3.219467,0.08282 3.372586,0.179981 0.207424,0.13162 0.262782,0.855374 0.217136,2.83884 l -0.06127,2.662183 -3.31136,0.03488 -3.311359,0.03488 3.8e-5,-2.87705 z M 55.203005,66.038899 v -1.737087 h 1.628516 1.628516 v 1.737087 1.737086 h -1.628516 -1.628516 z m 6.948345,-4.776987 v -2.605629 h 2.497059 2.497061 l 0.003,2.117073 c 0.0017,1.164391 0.06188,2.336924 0.133895,2.605629 0.130504,0.486974 0.122406,0.488556 -2.500027,0.488556 h -2.630943 z"
       id="path209" /></g></svg>
