<svg xmlns="http://www.w3.org/2000/svg" xmlns:xlink="http://www.w3.org/1999/xlink" width="500" height="442" viewBox="0 0 500 442">
  <defs>
    <style>
      .cls-1 {
        clip-path: url(#clip-logo);
      }

      .cls-2 {
        fill: #d40000;
      }

      .cls-3 {
        fill: #666;
      }

      .cls-4 {
        fill: #980101;
      }

      .cls-5 {
        fill: rgba(255,255,255,0);
      }
    </style>
    <clipPath id="clip-logo">
      <rect width="500" height="442"/>
    </clipPath>
  </defs>
  <g id="logo" class="cls-1">
    <rect class="cls-5" width="500" height="442"/>
    <g id="Group_1" data-name="Group 1">
      <path id="Polygon_1" data-name="Polygon 1" class="cls-2" d="M81,0l81,138H0Z" transform="translate(162 282) rotate(180)"/>
      <path id="Polygon_2" data-name="Polygon 2" class="cls-2" d="M81.5,0,163,137H0Z" transform="translate(85 152)"/>
      <path id="Polygon_3" data-name="Polygon 3" class="cls-2" d="M81.5,0,163,136H0Z" transform="translate(248 431) rotate(180)"/>
      <path id="Polygon_4" data-name="Polygon 4" class="cls-2" d="M81.5,0,163,138H0Z" transform="translate(172 296)"/>
      <path id="Polygon_5" data-name="Polygon 5" class="cls-3" d="M81,0l81,136H0Z" transform="translate(423 431) rotate(180)"/>
      <path id="Polygon_6" data-name="Polygon 6" class="cls-4" d="M80.5,0,161,138H0Z" transform="translate(413 142) rotate(180)"/>
      <path id="Polygon_7" data-name="Polygon 7" class="cls-4" d="M80,0l80,138H0Z" transform="translate(165 4)"/>
      <path id="Polygon_8" data-name="Polygon 8" class="cls-4" d="M81,0l81,138H0Z" transform="translate(338 4)"/>
      <path id="Polygon_9" data-name="Polygon 9" class="cls-3" d="M81,0l81,139H0Z" transform="translate(500 285) rotate(180)"/>
    </g>
  </g>
</svg>
