<svg xmlns="http://www.w3.org/2000/svg" width="1440" viewBox="0 0 1440 1440" height="1440" version="1.0"><path fill="#FFF" d="M 424.980469 334.8125 L 425.34375 250.816406 L 847.558594 252.625 L 847.199219 336.625 L 424.980469 334.8125"/><path fill="#FFF" d="M 763.214844 335.707031 L 847.214844 336.066406 L 846.269531 555.8125 L 762.269531 555.449219 L 763.214844 335.707031"/><path fill="#FFF" d="M 425.332031 250.921875 L 509.328125 251.28125 L 506.789062 842.992188 L 422.789062 842.632812 L 425.332031 250.921875"/><path fill="#FFF" d="M 593.296875 843.640625 L 593.660156 759.640625 L 1015.132812 761.449219 L 1014.773438 845.449219 L 593.296875 843.640625"/><path fill="#FFF" d="M 933.300781 253.914062 L 1017.296875 254.273438 L 1015.097656 767.238281 L 931.097656 766.878906 L 933.300781 253.914062"/><path fill="#FFF" d="M 594.558594 547.644531 L 678.554688 548.007812 L 677.621094 766.246094 L 593.621094 765.882812 L 594.558594 547.644531"/><g fill="#FFF"><g><g><path d="M 102.261719 -77.789062 L 101.636719 -53.46875 L 101.636719 0 L 126.890625 0 L 126.890625 -121.59375 L 89.480469 -121.59375 L 67.8125 -43.804688 L 45.988281 -121.59375 L 8.730469 -121.59375 L 8.730469 0 L 33.984375 0 L 33.984375 -53.46875 L 33.203125 -77.789062 L 54.871094 0 L 80.59375 0 Z M 102.261719 -77.789062" transform="translate(148.456 1134.961)"/></g></g></g><g fill="#FFF"><g><g><path d="M 52.378906 2.027344 C 84.023438 2.027344 98.832031 -15.589844 98.832031 -57.679688 L 98.832031 -63.914062 C 98.832031 -106.003906 84.023438 -123.617188 52.378906 -123.617188 C 20.890625 -123.617188 6.078125 -106.003906 6.078125 -63.914062 L 6.078125 -57.679688 C 6.078125 -15.589844 20.890625 2.027344 52.378906 2.027344 Z M 51.753906 -19.796875 C 36.164062 -19.796875 31.644531 -33.359375 31.644531 -57.679688 L 31.644531 -63.914062 C 31.644531 -88.230469 36.164062 -101.792969 51.753906 -101.792969 L 53.15625 -101.792969 C 68.746094 -101.792969 73.109375 -88.230469 73.109375 -63.914062 L 73.109375 -57.679688 C 73.109375 -33.359375 68.746094 -19.796875 53.15625 -19.796875 Z M 51.753906 -19.796875" transform="translate(287.504 1134.961)"/></g></g></g><g fill="#FFF"><g><g><path d="M 97.742188 -121.59375 L 73.734375 -121.59375 L 73.734375 -70.617188 L 74.515625 -46.144531 L 35.386719 -121.59375 L 8.730469 -121.59375 L 8.730469 0 L 32.582031 0 L 32.582031 -50.976562 L 31.800781 -75.449219 L 71.085938 0 L 97.742188 0 Z M 97.742188 -121.59375" transform="translate(395.999 1134.961)"/></g></g></g><g fill="#FFF"><g><g><path d="M 54.25 2.027344 C 75.449219 2.027344 87.765625 -4.675781 96.804688 -12.160156 L 96.804688 -65.785156 L 55.496094 -65.785156 L 55.496094 -43.960938 L 71.550781 -43.960938 L 71.550781 -24.472656 C 67.8125 -21.824219 62.199219 -19.796875 55.027344 -19.796875 L 53.625 -19.796875 C 35.855469 -19.796875 31.800781 -33.359375 31.800781 -57.679688 L 31.800781 -63.914062 C 31.800781 -88.230469 36.011719 -101.792969 52.691406 -101.792969 L 54.09375 -101.792969 C 68.121094 -101.792969 71.707031 -92.128906 71.707031 -75.449219 L 96.960938 -75.449219 L 96.960938 -81.0625 C 96.960938 -111.460938 81.683594 -123.617188 52.691406 -123.617188 C 21.199219 -123.617188 6.078125 -106.003906 6.078125 -63.914062 L 6.078125 -57.679688 C 6.078125 -15.589844 21.199219 2.027344 54.25 2.027344 Z M 54.25 2.027344" transform="translate(506.052 1134.961)"/></g></g></g><g fill="#FFF"><g><g><path d="M 34.761719 -121.59375 L 9.507812 -121.59375 L 9.507812 0 L 34.761719 0 Z M 34.761719 -121.59375" transform="translate(614.547 1134.961)"/></g></g></g><g fill="#FFF"><g><g><path d="M 45.207031 -50.820312 C 62.824219 -48.480469 67.34375 -43.648438 67.34375 -34.917969 L 67.34375 -34.140625 C 67.34375 -26.035156 61.574219 -19.796875 49.882812 -19.796875 L 48.480469 -19.796875 C 36.789062 -19.796875 30.554688 -26.1875 30.554688 -41.464844 L 5.300781 -41.464844 L 5.300781 -40.0625 C 5.300781 -10.757812 20.421875 2.027344 49.105469 2.027344 C 77.632812 2.027344 93.066406 -11.535156 93.066406 -34.917969 L 93.066406 -36.476562 C 93.066406 -59.082031 79.660156 -68.121094 53.15625 -71.707031 C 35.386719 -74.046875 31.800781 -78.722656 31.800781 -87.609375 L 31.800781 -88.386719 C 31.800781 -96.183594 37.726562 -101.792969 47.859375 -101.792969 L 49.261719 -101.792969 C 62.042969 -101.792969 66.875 -94.46875 66.875 -78.566406 L 92.128906 -78.566406 L 92.128906 -81.839844 C 92.128906 -110.367188 79.035156 -123.617188 49.105469 -123.617188 C 21.355469 -123.617188 6.234375 -109.433594 6.234375 -87.453125 L 6.234375 -85.738281 C 6.234375 -63.757812 18.707031 -54.40625 45.207031 -50.820312 Z M 45.207031 -50.820312" transform="translate(662.248 1134.961)"/></g></g></g><g fill="#FFF"><g><g><path d="M 95.089844 1.246094 L 110.523438 1.246094 L 133.128906 -121.59375 L 121.28125 -121.59375 L 102.261719 -12.625 L 77.320312 -121.59375 L 62.199219 -121.59375 L 37.257812 -12.625 L 18.238281 -121.59375 L 6.390625 -121.59375 L 28.996094 1.246094 L 44.429688 1.246094 L 69.683594 -109.433594 Z M 95.089844 1.246094" transform="translate(764.195 1134.961)"/></g></g></g><g fill="#FFF"><g><g><path d="M 50.507812 1.714844 C 78.410156 1.714844 92.285156 -15.589844 92.285156 -57.679688 L 92.285156 -63.914062 C 92.285156 -106.003906 78.410156 -123.308594 50.507812 -123.308594 C 22.757812 -123.308594 8.886719 -106.003906 8.886719 -63.914062 L 8.886719 -57.679688 C 8.886719 -15.589844 22.757812 1.714844 50.507812 1.714844 Z M 50.039062 -8.417969 C 29.617188 -8.417969 20.421875 -23.070312 20.421875 -57.679688 L 20.421875 -63.914062 C 20.421875 -98.519531 29.617188 -113.175781 50.039062 -113.175781 L 51.132812 -113.175781 C 71.550781 -113.175781 80.75 -98.519531 80.75 -63.914062 L 80.75 -57.679688 C 80.75 -23.070312 71.550781 -8.417969 51.132812 -8.417969 Z M 50.039062 -8.417969" transform="translate(907.295 1134.961)"/></g></g></g><g fill="#FFF"><g><g><path d="M 22.757812 -49.417969 L 45.207031 -49.417969 C 47.078125 -49.417969 48.949219 -49.417969 50.820312 -49.570312 L 70.148438 0 L 82.464844 0 L 61.417969 -51.753906 C 72.957031 -55.496094 82.464844 -64.539062 82.464844 -83.867188 L 82.464844 -86.984375 C 82.464844 -115.046875 62.511719 -121.59375 45.207031 -121.59375 L 11.535156 -121.59375 L 11.535156 0 L 22.757812 0 Z M 22.757812 -59.550781 L 22.757812 -111.460938 L 45.519531 -111.460938 C 55.964844 -111.460938 70.929688 -107.5625 70.929688 -86.671875 L 70.929688 -84.335938 C 70.929688 -63.445312 55.964844 -59.550781 45.519531 -59.550781 Z M 22.757812 -59.550781" transform="translate(1012.049 1134.961)"/></g></g></g><g fill="#FFF"><g><g><path d="M 22.757812 -121.59375 L 11.535156 -121.59375 L 11.535156 0 L 22.757812 0 L 22.757812 -37.414062 L 38.972656 -60.328125 L 69.527344 0 L 82.308594 0 L 46.144531 -70.460938 L 82.308594 -121.59375 L 68.589844 -121.59375 L 22.757812 -54.871094 Z M 22.757812 -121.59375" transform="translate(1106.67 1134.961)"/></g></g></g><g fill="#FFF"><g><g><path d="M 44.894531 -57.679688 C 66.097656 -54.714844 74.980469 -47.546875 74.980469 -33.203125 L 74.980469 -31.800781 C 74.980469 -16.992188 63.914062 -8.417969 47.390625 -8.417969 L 46.296875 -8.417969 C 29.929688 -8.417969 18.394531 -18.238281 18.394531 -39.59375 L 7.171875 -39.59375 L 7.171875 -38.035156 C 7.171875 -12.9375 21.042969 1.714844 46.765625 1.714844 C 71.085938 1.714844 86.515625 -11.066406 86.515625 -32.582031 L 86.515625 -34.140625 C 86.515625 -52.847656 75.605469 -63.601562 49.105469 -67.1875 C 26.8125 -70.304688 20.109375 -77.945312 20.109375 -90.882812 L 20.109375 -92.128906 C 20.109375 -105.222656 31.332031 -113.175781 46.144531 -113.175781 L 47.234375 -113.175781 C 65.785156 -113.175781 73.890625 -103.507812 73.890625 -80.4375 L 85.113281 -80.4375 L 85.113281 -84.179688 C 85.113281 -109.277344 73.890625 -123.308594 46.765625 -123.308594 C 23.695312 -123.308594 8.574219 -110.992188 8.574219 -90.726562 L 8.574219 -89.167969 C 8.574219 -73.109375 18.394531 -61.265625 44.894531 -57.679688 Z M 44.894531 -57.679688" transform="translate(1197.862 1134.961)"/></g></g></g></svg>